<svg xmlns="http://www.w3.org/2000/svg" width="16.263" height="16.263" viewBox="0 0 16.263 16.263">
  <g transform="translate(.13172798 .13172798)">
    <path fill="rgb(71,117,242)" fill-rule="evenodd" d="M1.01515543 12.89015126L12.91682926.98852423c.58539543-.58539314 1.5359272-.58539127 2.12132034.00000417.58539313.58539543.58539126 1.5359272-.00000417 2.12132034L3.1364716 15.01147577c-.58539543.58539314-1.5359272.58539127-2.12132034-.00000417-.58539313-.58539543-.58539127-1.5359272.00000417-2.12132034z"/>
    <path fill="rgb(71,117,242)" fill-opacity=".49" fill-rule="evenodd" d="M3.05025452.9289308l12.0208119 12.02081865c.58539412.58539445.58539386 1.53592623-6e-7 2.12132035-.58539444.58539412-1.53592622.58539385-2.12132034-6e-7L.92893358 3.05025055C.34353946 2.4648561.34353972 1.51432432.92893418.9289302c.58539444-.58539412 1.53592622-.58539385 2.12132034 6e-7z"/>
  </g>
</svg>
